Coda-Heavy-IN.ufo
<glyph name="percent" format="1">
  <advance width="2792"/>
  <unicode hex="0025"/>
  <outline>
    <contour>
      <point x="1779" y="1632" type="line"/>
      <point x="1403" y="-39" type="line"/>
      <point x="1015" y="-39" type="line"/>
      <point x="1395" y="1632" type="line"/>
    </contour>
    <contour>
      <point x="2215" y="129" type="curve" smooth="yes"/>
      <point x="1990" y="129"/>
      <point x="1765" y="146"/>
      <point x="1765" y="441" type="curve" smooth="yes"/>
      <point x="1765" y="798" type="line" smooth="yes"/>
      <point x="1765" y="1091"/>
      <point x="1990" y="1109"/>
      <point x="2214" y="1109" type="curve" smooth="yes"/>
      <point x="2437" y="1109"/>
      <point x="2665" y="1092"/>
      <point x="2665" y="799" type="curve" smooth="yes"/>
      <point x="2665" y="442" type="line" smooth="yes"/>
      <point x="2665" y="153"/>
      <point x="2436" y="129"/>
    </contour>
    <contour>
      <point x="2262" y="892" type="line"/>
      <point x="2172" y="892" type="line"/>
      <point x="2172" y="347" type="line"/>
      <point x="2262" y="347" type="line"/>
    </contour>
    <contour>
      <point x="575" y="618" type="curve" smooth="yes"/>
      <point x="349" y="618"/>
      <point x="125" y="623"/>
      <point x="125" y="927" type="curve" smooth="yes"/>
      <point x="125" y="1286" type="line" smooth="yes"/>
      <point x="125" y="1577"/>
      <point x="352" y="1595"/>
      <point x="574" y="1595" type="curve" smooth="yes"/>
      <point x="795" y="1595"/>
      <point x="1025" y="1578"/>
      <point x="1025" y="1288" type="curve" smooth="yes"/>
      <point x="1025" y="929" type="line" smooth="yes"/>
      <point x="1025" y="630"/>
      <point x="798" y="618"/>
    </contour>
    <contour>
      <point x="623" y="1378" type="line"/>
      <point x="532" y="1378" type="line"/>
      <point x="532" y="833" type="line"/>
      <point x="623" y="833" type="line"/>
    </contour>
  </outline>
</glyph>
<glyph name="parenleft" format="1">
  <advance width="860"/>
  <unicode hex="0028"/>
  <outline>
    <contour>
      <point x="51" y="827" type="curve" smooth="yes"/>
      <point x="51" y="1328"/>
      <point x="253" y="1841"/>
      <point x="678" y="1841" type="curve" smooth="yes"/>
      <point x="771" y="1841" type="line"/>
      <point x="771" y="1562" type="line"/>
      <point x="706" y="1562" type="line" smooth="yes"/>
      <point x="545" y="1562"/>
      <point x="453" y="1188"/>
      <point x="453" y="827" type="curve" smooth="yes"/>
      <point x="453" y="466"/>
      <point x="545" y="110"/>
      <point x="706" y="110" type="curve" smooth="yes"/>
      <point x="771" y="110" type="line"/>
      <point x="771" y="-169" type="line"/>
      <point x="678" y="-169" type="line" smooth="yes"/>
      <point x="253" y="-169"/>
      <point x="51" y="326"/>
    </contour>
  </outline>
</glyph>
<glyph name="one" format="1">
  <advance width="961"/>
  <unicode hex="0031"/>
  <outline>
    <contour>
      <point x="41" y="1511" type="line"/>
      <point x="178" y="1511"/>
      <point x="300" y="1542"/>
      <point x="388" y="1595" type="curve"/>
      <point x="866" y="1595" type="line"/>
      <point x="866" y="0" type="line"/>
      <point x="262" y="0" type="line"/>
      <point x="262" y="1291" type="line"/>
      <point x="41" y="1291" type="line"/>
    </contour>
  </outline>
</glyph>
<glyph name="three" format="1">
  <advance width="1436"/>
  <unicode hex="0033"/>
  <outline>
    <contour>
      <point x="714" y="1632" type="curve" smooth="yes"/>
      <point x="1147" y="1632"/>
      <point x="1364" y="1506"/>
      <point x="1364" y="1113" type="curve" smooth="yes"/>
      <point x="1364" y="965"/>
      <point x="1284" y="869"/>
      <point x="1163" y="820" type="curve"/>
      <point x="1299" y="770"/>
      <point x="1366" y="661"/>
      <point x="1366" y="522" type="curve" smooth="yes"/>
      <point x="1366" y="79"/>
      <point x="1111" y="-39"/>
      <point x="716" y="-39" type="curve" smooth="yes"/>
      <point x="270" y="-39"/>
      <point x="71" y="142"/>
      <point x="71" y="517" type="curve" smooth="yes"/>
      <point x="71" y="548"/>
      <point x="72" y="580"/>
      <point x="75" y="613" type="curve"/>
      <point x="627" y="613" type="line"/>
      <point x="627" y="235" type="line"/>
      <point x="799" y="235" type="line"/>
      <point x="799" y="707" type="line"/>
      <point x="540" y="707" type="line"/>
      <point x="540" y="931" type="line"/>
      <point x="799" y="931" type="line"/>
      <point x="799" y="1361" type="line"/>
      <point x="627" y="1361" type="line"/>
      <point x="627" y="1024" type="line"/>
      <point x="75" y="1024" type="line"/>
      <point x="73" y="1053"/>
      <point x="72" y="1081"/>
      <point x="72" y="1108" type="curve" smooth="yes"/>
      <point x="72" y="1503"/>
      <point x="293" y="1632"/>
    </contour>
  </outline>
</glyph>
<glyph name="seven" format="1">
  <advance width="991"/>
  <unicode hex="0037"/>
  <outline>
    <contour>
      <point x="942" y="1595" type="line"/>
      <point x="942" y="1351" type="line"/>
      <point x="716" y="0" type="line"/>
      <point x="112" y="0" type="line"/>
      <point x="334" y="1354" type="line"/>
      <point x="40" y="1354" type="line"/>
      <point x="40" y="1595" type="line"/>
    </contour>
  </outline>
</glyph>
<glyph name="C" format="1">
  <advance width="1519"/>
  <unicode hex="0043"/>
  <outline>
    <contour>
      <point x="858" y="1356" type="line"/>
      <point x="685" y="1356" type="line"/>
      <point x="685" y="233" type="line"/>
      <point x="858" y="233" type="line"/>
      <point x="858" y="614" type="line"/>
      <point x="1462" y="614" type="line"/>
      <point x="1462" y="369" type="line" smooth="yes"/>
      <point x="1462" y="-6"/>
      <point x="1080" y="-40"/>
      <point x="776" y="-40" type="curve" smooth="yes"/>
      <point x="501" y="-40"/>
      <point x="80" y="-9"/>
      <point x="80" y="370" type="curve" smooth="yes"/>
      <point x="80" y="1226" type="line" smooth="yes"/>
      <point x="80" y="1598"/>
      <point x="473" y="1636"/>
      <point x="773" y="1636" type="curve" smooth="yes"/>
      <point x="1088" y="1636"/>
      <point x="1462" y="1606"/>
      <point x="1462" y="1227" type="curve" smooth="yes"/>
      <point x="1462" y="979" type="line"/>
      <point x="858" y="979" type="line"/>
    </contour>
    <contour>
      <point x="760" y="1595" type="move" name="top"/>
    </contour>
    <contour>
      <point x="760" y="0" type="move" name="bottom"/>
    </contour>
  </outline>
</glyph>
<glyph name="J" format="1">
  <advance width="923"/>
  <unicode hex="004A"/>
  <outline>
    <contour>
      <point x="831" y="1594" type="line"/>
      <point x="831" y="274" type="line" smooth="yes"/>
      <point x="831" y="-44"/>
      <point x="604" y="-159"/>
      <point x="310" y="-159" type="curve" smooth="yes"/>
      <point x="229" y="-159"/>
      <point x="142" y="-150"/>
      <point x="54" y="-134" type="curve"/>
      <point x="54" y="138" type="line"/>
      <point x="227" y="138" type="line"/>
      <point x="227" y="1594" type="line"/>
    </contour>
    <contour>
      <point x="462" y="1595" type="move" name="top"/>
    </contour>
  </outline>
</glyph>
<glyph name="P" format="1">
  <advance width="1530"/>
  <unicode hex="0050"/>
  <outline>
    <contour>
      <point x="695" y="628" type="line"/>
      <point x="868" y="628" type="line"/>
      <point x="868" y="1362" type="line"/>
      <point x="695" y="1362" type="line"/>
    </contour>
    <contour>
      <point x="92" y="1595" type="line"/>
      <point x="847" y="1595" type="line" smooth="yes"/>
      <point x="1163" y="1595"/>
      <point x="1473" y="1559"/>
      <point x="1473" y="1204" type="curve" smooth="yes"/>
      <point x="1473" y="793" type="line" smooth="yes"/>
      <point x="1473" y="428"/>
      <point x="1158" y="402"/>
      <point x="848" y="402" type="curve" smooth="yes"/>
      <point x="696" y="402" type="line"/>
      <point x="696" y="0" type="line"/>
      <point x="92" y="0" type="line"/>
    </contour>
  </outline>
</glyph>
<glyph name="Y" format="1">
  <advance width="1486"/>
  <unicode hex="0059"/>
  <outline>
    <contour>
      <point x="738" y="955" type="line"/>
      <point x="747" y="955" type="line"/>
      <point x="933" y="1595" type="line"/>
      <point x="1489" y="1595" type="line"/>
      <point x="1047" y="529" type="line"/>
      <point x="1047" y="0" type="line"/>
      <point x="442" y="0" type="line"/>
      <point x="442" y="539" type="line"/>
      <point x="-3" y="1595" type="line"/>
      <point x="557" y="1595" type="line"/>
    </contour>
    <contour>
      <point x="743" y="1595" type="move" name="top"/>
    </contour>
  </outline>
</glyph>
<glyph name="bracketright" format="1">
  <advance width="1108"/>
  <unicode hex="005D"/>
  <outline>
    <contour>
      <point x="1010" y="-319" type="line"/>
      <point x="35" y="-319" type="line"/>
      <point x="35" y="-77" type="line"/>
      <point x="376" y="-77" type="line"/>
      <point x="376" y="1578" type="line"/>
      <point x="35" y="1578" type="line"/>
      <point x="35" y="1819" type="line"/>
      <point x="1010" y="1819" type="line"/>
    </contour>
  </outline>
</glyph>
<glyph name="asciicircum" format="1">
  <advance width="1222"/>
  <unicode hex="005E"/>
  <outline>
    <contour>
      <point x="896" y="676" type="line"/>
      <point x="1179" y="61" type="line"/>
      <point x="698" y="61" type="line"/>
      <point x="610" y="381" type="line"/>
      <point x="526" y="61" type="line"/>
      <point x="46" y="61" type="line"/>
      <point x="318" y="676" type="line"/>
    </contour>
  </outline>
</glyph>
<glyph name="a" format="1">
  <advance width="1450"/>
  <unicode hex="0061"/>
  <outline>
    <contour>
      <point x="629" y="653" type="line"/>
      <point x="629" y="200" type="line"/>
      <point x="795" y="200" type="line"/>
      <point x="795" y="653" type="line"/>
    </contour>
    <contour>
      <point x="1365" y="257" type="line"/>
      <point x="1366" y="162"/>
      <point x="1378" y="75"/>
      <point x="1394" y="1" type="curve"/>
      <point x="874" y="1" type="line"/>
      <point x="818" y="139" type="line"/>
      <point x="757" y="38"/>
      <point x="642" y="-30"/>
      <point x="478" y="-30" type="curve" smooth="yes"/>
      <point x="193" y="-30"/>
      <point x="57" y="107"/>
      <point x="57" y="388" type="curve" smooth="yes"/>
      <point x="57" y="693"/>
      <point x="219" y="824"/>
      <point x="529" y="824" type="curve" smooth="yes"/>
      <point x="636" y="824"/>
      <point x="722" y="807"/>
      <point x="795" y="783" type="curve"/>
      <point x="795" y="1106" type="line"/>
      <point x="656" y="1106" type="line"/>
      <point x="656" y="915" type="line"/>
      <point x="131" y="895" type="line"/>
      <point x="125" y="930"/>
      <point x="120" y="966"/>
      <point x="120" y="1005" type="curve" smooth="yes"/>
      <point x="120" y="1304"/>
      <point x="487" y="1327"/>
      <point x="724" y="1327" type="curve" smooth="yes"/>
      <point x="1031" y="1327"/>
      <point x="1365" y="1303"/>
      <point x="1365" y="952" type="curve" smooth="yes"/>
    </contour>
    <contour>
      <point x="725" y="1300" type="move" name="top"/>
    </contour>
    <contour>
      <point x="1305" y="10" type="move" name="ogonek"/>
    </contour>
  </outline>
</glyph>
<glyph name="b" format="1">
  <advance width="1484"/>
  <unicode hex="0062"/>
  <outline>
    <contour>
      <point x="672" y="199" type="line"/>
      <point x="839" y="199" type="line"/>
      <point x="839" y="1105" type="line"/>
      <point x="672" y="1105" type="line"/>
    </contour>
    <contour>
      <point x="993" y="-30" type="curve" smooth="yes"/>
      <point x="848" y="-30"/>
      <point x="718" y="25"/>
      <point x="658" y="114" type="curve"/>
      <point x="621" y="0" type="line"/>
      <point x="101" y="0" type="line"/>
      <point x="101" y="1710" type="line"/>
      <point x="672" y="1710" type="line"/>
      <point x="672" y="1215" type="line"/>
      <point x="739" y="1292"/>
      <point x="846" y="1327"/>
      <point x="996" y="1327" type="curve" smooth="yes"/>
      <point x="1265" y="1327"/>
      <point x="1410" y="1205"/>
      <point x="1410" y="940" type="curve" smooth="yes"/>
      <point x="1410" y="377" type="line" smooth="yes"/>
      <point x="1410" y="106"/>
      <point x="1271" y="-30"/>
    </contour>
  </outline>
</glyph>
<glyph name="i" format="1">
  <advance width="751"/>
  <unicode hex="0069"/>
  <outline>
    <contour>
      <point x="661" y="1709" type="line"/>
      <point x="661" y="1425" type="line"/>
      <point x="90" y="1425" type="line"/>
      <point x="90" y="1709" type="line"/>
    </contour>
    <contour>
      <point x="661" y="0" type="line"/>
      <point x="90" y="0" type="line"/>
      <point x="90" y="1300" type="line"/>
      <point x="661" y="1300" type="line"/>
    </contour>
  </outline>
</glyph>
<glyph name="j" format="1">
  <advance width="827"/>
  <unicode hex="006A"/>
  <outline>
    <contour>
      <point x="737" y="1709" type="line"/>
      <point x="737" y="1425" type="line"/>
      <point x="165" y="1425" type="line"/>
      <point x="165" y="1709" type="line"/>
    </contour>
    <contour>
      <point x="737" y="94" type="line" smooth="yes"/>
      <point x="737" y="-199"/>
      <point x="573" y="-326"/>
      <point x="276" y="-326" type="curve" smooth="yes"/>
      <point x="167" y="-326"/>
      <point x="87" y="-321"/>
      <point x="6" y="-305" type="curve"/>
      <point x="-24" y="-66" type="line"/>
      <point x="165" y="-66" type="line"/>
      <point x="165" y="1300" type="line"/>
      <point x="737" y="1300" type="line"/>
    </contour>
  </outline>
</glyph>
<glyph name="m" format="1">
  <advance width="2196"/>
  <unicode hex="006D"/>
  <outline>
    <contour>
      <point x="1689" y="1327" type="curve" smooth="yes"/>
      <point x="1956" y="1327"/>
      <point x="2112" y="1202"/>
      <point x="2112" y="944" type="curve" smooth="yes"/>
      <point x="2112" y="0" type="line"/>
      <point x="1549" y="0" type="line"/>
      <point x="1549" y="1105" type="line"/>
      <point x="1376" y="1105" type="line"/>
      <point x="1382" y="1072"/>
      <point x="1383" y="1037"/>
      <point x="1383" y="1001" type="curve" smooth="yes"/>
      <point x="1383" y="0" type="line"/>
      <point x="826" y="0" type="line"/>
      <point x="826" y="1105" type="line"/>
      <point x="659" y="1105" type="line"/>
      <point x="659" y="0" type="line"/>
      <point x="96" y="0" type="line"/>
      <point x="96" y="1300" type="line"/>
      <point x="608" y="1300" type="line"/>
      <point x="645" y="1188" type="line"/>
      <point x="710" y="1276"/>
      <point x="854" y="1327"/>
      <point x="1003" y="1327" type="curve" smooth="yes"/>
      <point x="1159" y="1327"/>
      <point x="1274" y="1274"/>
      <point x="1342" y="1191" type="curve"/>
      <point x="1404" y="1281"/>
      <point x="1531" y="1327"/>
    </contour>
  </outline>
</glyph>
<glyph name="q" format="1">
  <advance width="1459"/>
  <unicode hex="0071"/>
  <outline>
    <contour>
      <point x="817" y="1105" type="line"/>
      <point x="652" y="1105" type="line"/>
      <point x="652" y="199" type="line"/>
      <point x="817" y="199" type="line"/>
    </contour>
    <contour>
      <point x="502" y="1327" type="curve" smooth="yes"/>
      <point x="641" y="1327"/>
      <point x="773" y="1271"/>
      <point x="831" y="1188" type="curve"/>
      <point x="869" y="1300" type="line"/>
      <point x="1381" y="1300" type="line"/>
      <point x="1381" y="-410" type="line"/>
      <point x="832" y="-410" type="line"/>
      <point x="832" y="87" type="line"/>
      <point x="764" y="9"/>
      <point x="644" y="-30"/>
      <point x="501" y="-30" type="curve" smooth="yes"/>
      <point x="227" y="-30"/>
      <point x="86" y="99"/>
      <point x="86" y="365" type="curve" smooth="yes"/>
      <point x="86" y="926" type="line"/>
      <point x="85" y="926" type="line"/>
      <point x="85" y="1194"/>
      <point x="226" y="1327"/>
    </contour>
  </outline>
</glyph>
<glyph name="w" format="1">
  <advance width="2025"/>
  <unicode hex="0077"/>
  <outline>
    <contour>
      <point x="923" y="0" type="line"/>
      <point x="233" y="0" type="line"/>
      <point x="35" y="1300" type="line"/>
      <point x="535" y="1300" type="line"/>
      <point x="630" y="385" type="line"/>
      <point x="644" y="385" type="line"/>
      <point x="746" y="1300" type="line"/>
      <point x="1291" y="1300" type="line"/>
      <point x="1388" y="385" type="line"/>
      <point x="1402" y="385" type="line"/>
      <point x="1495" y="1300" type="line"/>
      <point x="1990" y="1300" type="line"/>
      <point x="1796" y="0" type="line"/>
      <point x="1102" y="0" type="line"/>
      <point x="1016" y="801" type="line"/>
      <point x="1006" y="801" type="line"/>
    </contour>
    <contour>
      <point x="1013" y="1300" type="move" name="top"/>
    </contour>
  </outline>
</glyph>
<glyph name="z" format="1">
  <advance width="1080"/>
  <unicode hex="007A"/>
  <outline>
    <contour>
      <point x="77" y="1300" type="line"/>
      <point x="1015" y="1300" type="line"/>
      <point x="1038" y="1079" type="line"/>
      <point x="682" y="246" type="line"/>
      <point x="1053" y="246" type="line"/>
      <point x="1038" y="0" type="line"/>
      <point x="81" y="0" type="line"/>
      <point x="57" y="233" type="line"/>
      <point x="422" y="1051" type="line"/>
      <point x="88" y="1051" type="line"/>
    </contour>
    <contour>
      <point x="540" y="1300" type="move" name="top"/>
    </contour>
  </outline>
</glyph>
<glyph name="bar" format="1">
  <advance width="831"/>
  <unicode hex="007C"/>
  <outline>
    <contour>
      <point x="700" y="1795" type="line"/>
      <point x="700" y="-100" type="line"/>
      <point x="129" y="-100" type="line"/>
      <point x="129" y="1795" type="line"/>
    </contour>
  </outline>
</glyph>
<glyph name="cent" format="1">
  <advance width="1462"/>
  <unicode hex="00A2"/>
  <outline>
    <contour>
      <point x="598" y="1119" type="line"/>
      <point x="598" y="373" type="line"/>
      <point x="706" y="373" type="line"/>
      <point x="706" y="1119" type="line"/>
    </contour>
    <contour>
      <point x="1396" y="633" type="line"/>
      <point x="1396" y="523" type="line" smooth="yes"/>
      <point x="1396" y="180"/>
      <point x="1077" y="149"/>
      <point x="785" y="147" type="curve"/>
      <point x="785" y="-74" type="line"/>
      <point x="706" y="-74" type="line"/>
      <point x="706" y="147" type="line"/>
      <point x="407" y="149"/>
      <point x="86" y="187"/>
      <point x="86" y="529" type="curve" smooth="yes"/>
      <point x="86" y="969" type="line" smooth="yes"/>
      <point x="86" y="1310"/>
      <point x="425" y="1341"/>
      <point x="706" y="1343" type="curve"/>
      <point x="706" y="1578" type="line"/>
      <point x="785" y="1578" type="line"/>
      <point x="785" y="1343" type="line"/>
      <point x="1026" y="1340"/>
      <point x="1396" y="1309"/>
      <point x="1396" y="992" type="curve" smooth="yes"/>
      <point x="1396" y="881" type="line"/>
      <point x="885" y="881" type="line"/>
      <point x="885" y="1119" type="line"/>
      <point x="785" y="1119" type="line"/>
      <point x="785" y="373" type="line"/>
      <point x="885" y="373" type="line"/>
      <point x="885" y="633" type="line"/>
    </contour>
  </outline>
</glyph>
<glyph name="periodcentered" format="1">
  <advance width="670"/>
  <unicode hex="00B7"/>
  <outline>
    <contour>
      <point x="136" y="1116" type="curve" smooth="yes"/>
      <point x="136" y="1256"/>
      <point x="238" y="1326"/>
      <point x="340" y="1326" type="curve" smooth="yes"/>
      <point x="442" y="1326"/>
      <point x="544" y="1256"/>
      <point x="544" y="1116" type="curve" smooth="yes"/>
      <point x="544" y="976"/>
      <point x="442" y="906"/>
      <point x="340" y="906" type="curve" smooth="yes"/>
      <point x="238" y="906"/>
      <point x="136" y="976"/>
    </contour>
  </outline>
</glyph>
<glyph name="onequarter" format="1">
  <advance width="2565"/>
  <unicode hex="00BC"/>
  <outline>
    <contour>
      <point x="751" y="0" type="line"/>
      <point x="1103" y="1595" type="line"/>
      <point x="1537" y="1595" type="line"/>
      <point x="1186" y="0" type="line"/>
    </contour>
    <contour>
      <point x="31" y="1415" type="line"/>
      <point x="121" y="1415"/>
      <point x="201" y="1435"/>
      <point x="258" y="1470" type="curve"/>
      <point x="570" y="1470" type="line"/>
      <point x="570" y="430" type="line"/>
      <point x="175" y="430" type="line"/>
      <point x="175" y="1271" type="line"/>
      <point x="31" y="1271" type="line"/>
    </contour>
    <contour>
      <point x="2499" y="130" type="line"/>
      <point x="2140" y="130" type="line"/>
      <point x="2140" y="291" type="line"/>
      <point x="1624" y="291" type="line"/>
      <point x="1624" y="571" type="line"/>
      <point x="1794" y="1172" type="line"/>
      <point x="2179" y="1172" type="line"/>
      <point x="2010" y="571" type="line"/>
      <point x="2010" y="535" type="line"/>
      <point x="2140" y="535" type="line"/>
      <point x="2140" y="760" type="line"/>
      <point x="2499" y="760" type="line"/>
    </contour>
  </outline>
</glyph>
<glyph name="threequarters" format="1">
  <advance width="2894"/>
  <unicode hex="00BE"/>
  <outline>
    <contour>
      <point x="1120" y="0" type="line"/>
      <point x="1472" y="1595" type="line"/>
      <point x="1906" y="1595" type="line"/>
      <point x="1555" y="0" type="line"/>
    </contour>
    <contour>
      <point x="995" y="1175" type="curve" smooth="yes"/>
      <point x="995" y="1067"/>
      <point x="940" y="999"/>
      <point x="857" y="963" type="curve"/>
      <point x="951" y="927"/>
      <point x="997" y="841"/>
      <point x="997" y="733" type="curve" smooth="yes"/>
      <point x="997" y="487"/>
      <point x="862" y="394"/>
      <point x="566" y="394" type="curve" smooth="yes"/>
      <point x="270" y="394"/>
      <point x="139" y="515"/>
      <point x="139" y="765" type="curve" smooth="yes"/>
      <point x="139" y="785"/>
      <point x="140" y="805"/>
      <point x="142" y="826" type="curve"/>
      <point x="508" y="826" type="line"/>
      <point x="508" y="576" type="line"/>
      <point x="621" y="576" type="line"/>
      <point x="621" y="889" type="line"/>
      <point x="450" y="889" type="line"/>
      <point x="450" y="1037" type="line"/>
      <point x="621" y="1037" type="line"/>
      <point x="621" y="1321" type="line"/>
      <point x="508" y="1321" type="line"/>
      <point x="508" y="1098" type="line"/>
      <point x="142" y="1098" type="line"/>
      <point x="140" y="1117"/>
      <point x="139" y="1135"/>
      <point x="139" y="1153" type="curve" smooth="yes"/>
      <point x="139" y="1416"/>
      <point x="285" y="1499"/>
      <point x="565" y="1499" type="curve" smooth="yes"/>
      <point x="835" y="1499"/>
      <point x="995" y="1422"/>
    </contour>
    <contour>
      <point x="2828" y="130" type="line"/>
      <point x="2469" y="130" type="line"/>
      <point x="2469" y="291" type="line"/>
      <point x="1953" y="291" type="line"/>
      <point x="1953" y="571" type="line"/>
      <point x="2123" y="1172" type="line"/>
      <point x="2508" y="1172" type="line"/>
      <point x="2339" y="571" type="line"/>
      <point x="2339" y="535" type="line"/>
      <point x="2469" y="535" type="line"/>
      <point x="2469" y="760" type="line"/>
      <point x="2828" y="760" type="line"/>
    </contour>
  </outline>
</glyph>
<glyph name="gcedilla" format="1">
  <advance width="1470"/>
  <unicode hex="0123"/>
  <outline>
    <contour>
      <point x="826" y="1104" type="line"/>
      <point x="659" y="1104" type="line"/>
      <point x="659" y="316" type="line"/>
      <point x="826" y="316" type="line"/>
    </contour>
    <contour>
      <point x="511" y="1327" type="curve"/>
      <point x="511" y="1326" type="line"/>
      <point x="667" y="1326"/>
      <point x="784" y="1276"/>
      <point x="850" y="1187" type="curve"/>
      <point x="886" y="1299" type="line"/>
      <point x="1397" y="1299" type="line"/>
      <point x="1397" y="236" type="line" smooth="yes"/>
      <point x="1397" y="-184"/>
      <point x="1170" y="-372"/>
      <point x="678" y="-372" type="curve" smooth="yes"/>
      <point x="478" y="-372"/>
      <point x="324" y="-345"/>
      <point x="201" y="-311" type="curve"/>
      <point x="258" y="-20" type="line"/>
      <point x="408" y="-61"/>
      <point x="738" y="-82"/>
      <point x="839" y="-22" type="curve"/>
      <point x="839" y="205" type="line"/>
      <point x="777" y="125"/>
      <point x="647" y="91"/>
      <point x="508" y="91" type="curve" smooth="yes"/>
      <point x="237" y="91"/>
      <point x="88" y="214"/>
      <point x="88" y="482" type="curve" smooth="yes"/>
      <point x="88" y="927" type="line" smooth="yes"/>
      <point x="88" y="1196"/>
      <point x="234" y="1327"/>
    </contour>
  </outline>
</glyph>
<glyph name="Hbar" format="1">
  <advance width="1703"/>
  <unicode hex="0126"/>
  <outline>
    <contour>
      <point x="755" y="1158" type="line"/>
      <point x="755" y="938" type="line"/>
      <point x="948" y="938" type="line"/>
      <point x="948" y="1158" type="line"/>
    </contour>
    <contour>
      <point x="1659" y="1349" type="line"/>
      <point x="1659" y="1158" type="line"/>
      <point x="1553" y="1158" type="line"/>
      <point x="1553" y="0" type="line"/>
      <point x="948" y="0" type="line"/>
      <point x="948" y="688" type="line"/>
      <point x="755" y="688" type="line"/>
      <point x="755" y="0" type="line"/>
      <point x="151" y="0" type="line"/>
      <point x="151" y="1158" type="line"/>
      <point x="54" y="1158" type="line"/>
      <point x="54" y="1349" type="line"/>
      <point x="151" y="1349" type="line"/>
      <point x="151" y="1595" type="line"/>
      <point x="755" y="1595" type="line"/>
      <point x="755" y="1349" type="line"/>
      <point x="948" y="1349" type="line"/>
      <point x="948" y="1595" type="line"/>
      <point x="1553" y="1595" type="line"/>
      <point x="1553" y="1349" type="line"/>
    </contour>
  </outline>
</glyph>
<glyph name="IJ" format="1">
  <advance width="1667"/>
  <unicode hex="0132"/>
  <outline>
    <contour>
      <point x="1596" y="334" type="line" smooth="yes"/>
      <point x="1596" y="-10"/>
      <point x="1268" y="-75"/>
      <point x="916" y="-75" type="curve"/>
      <point x="916" y="-76" type="line"/>
      <point x="882" y="-76"/>
      <point x="851" y="-75"/>
      <point x="819" y="-74" type="curve"/>
      <point x="819" y="198" type="line"/>
      <point x="992" y="198" type="line"/>
      <point x="992" y="1594" type="line"/>
      <point x="1596" y="1594" type="line"/>
    </contour>
    <contour>
      <point x="720" y="1595" type="line"/>
      <point x="720" y="0" type="line"/>
      <point x="116" y="0" type="line"/>
      <point x="116" y="1595" type="line"/>
    </contour>
  </outline>
</glyph>
<glyph name="kgreenlandic" format="1">
  <advance width="1590"/>
  <unicode hex="0138"/>
  <outline>
    <contour>
      <point x="100" y="0" type="line"/>
      <point x="100" y="1299" type="line"/>
      <point x="684" y="1299" type="line"/>
      <point x="684" y="858" type="line"/>
      <point x="952" y="1300" type="line"/>
      <point x="1538" y="1300" type="line"/>
      <point x="1203" y="790" type="line"/>
      <point x="1561" y="0" type="line"/>
      <point x="986" y="0" type="line"/>
      <point x="797" y="455" type="line"/>
      <point x="684" y="318" type="line"/>
      <point x="684" y="0" type="line"/>
    </contour>
  </outline>
</glyph>
<glyph name="oe" format="1">
  <advance width="2136"/>
  <unicode hex="0153"/>
  <outline>
    <contour>
      <point x="1350" y="825" type="line"/>
      <point x="1501" y="825" type="line"/>
      <point x="1501" y="1051" type="line"/>
      <point x="1350" y="1051" type="line"/>
    </contour>
    <contour>
      <point x="649" y="248" type="line"/>
      <point x="799" y="248" type="line"/>
      <point x="799" y="1051" type="line"/>
      <point x="649" y="1051" type="line"/>
    </contour>
    <contour>
      <point x="1448" y="-28" type="curve" smooth="yes"/>
      <point x="1287" y="-28"/>
      <point x="1121" y="-9"/>
      <point x="1075" y="96" type="curve"/>
      <point x="1074" y="94" type="line"/>
      <point x="1011" y="2"/>
      <point x="874" y="-30"/>
      <point x="711" y="-30" type="curve" smooth="yes"/>
      <point x="410" y="-30"/>
      <point x="103" y="10"/>
      <point x="88" y="282" type="curve" smooth="yes"/>
      <point x="86" y="312"/>
      <point x="85" y="340"/>
      <point x="85" y="367" type="curve" smooth="yes"/>
      <point x="85" y="930" type="line" smooth="yes"/>
      <point x="85" y="1112"/>
      <point x="138" y="1203"/>
      <point x="268" y="1262" type="curve" smooth="yes"/>
      <point x="382" y="1313"/>
      <point x="530" y="1330"/>
      <point x="710" y="1330" type="curve" smooth="yes"/>
      <point x="863" y="1330"/>
      <point x="1024" y="1305"/>
      <point x="1074" y="1211" type="curve"/>
      <point x="1134" y="1304"/>
      <point x="1286" y="1330"/>
      <point x="1447" y="1330" type="curve" smooth="yes"/>
      <point x="1629" y="1330"/>
      <point x="1774" y="1313"/>
      <point x="1888" y="1262" type="curve" smooth="yes"/>
      <point x="1989" y="1217"/>
      <point x="2061" y="1145"/>
      <point x="2067" y="1016" type="curve" smooth="yes"/>
      <point x="2068" y="986"/>
      <point x="2069" y="958"/>
      <point x="2069" y="931" type="curve" smooth="yes"/>
      <point x="2065" y="620" type="line"/>
      <point x="1351" y="620" type="line"/>
      <point x="1351" y="249" type="line"/>
      <point x="1502" y="249" type="line"/>
      <point x="1502" y="554" type="line"/>
      <point x="2069" y="554" type="line"/>
      <point x="2069" y="368" type="line" smooth="yes"/>
      <point x="2069" y="188"/>
      <point x="2019" y="96"/>
      <point x="1889" y="39" type="curve" smooth="yes"/>
      <point x="1775" y="-11"/>
      <point x="1628" y="-28"/>
    </contour>
    <contour>
      <point x="1068" y="1300" type="move" name="top"/>
    </contour>
  </outline>
</glyph>
<glyph name="tilde" format="1">
  <advance width="1422"/>
  <unicode hex="02DC"/>
  <outline>
    <contour>
      <point x="1359" y="96" type="curve"/>
      <point x="1066" y="96" type="line"/>
      <point x="1066" y="178"/>
      <point x="1038" y="260"/>
      <point x="956" y="260" type="curve" smooth="yes"/>
      <point x="912" y="260"/>
      <point x="881" y="233"/>
      <point x="853" y="211" type="curve" smooth="yes"/>
      <point x="759" y="136"/>
      <point x="661" y="70"/>
      <point x="486" y="70" type="curve" smooth="yes"/>
      <point x="250" y="70"/>
      <point x="151" y="176"/>
      <point x="106" y="376" type="curve"/>
      <point x="88" y="439"/>
      <point x="79" y="521"/>
      <point x="79" y="621" type="curve"/>
      <point x="375" y="621" type="line"/>
      <point x="375" y="535"/>
      <point x="401" y="453"/>
      <point x="487" y="453" type="curve" smooth="yes"/>
      <point x="531" y="453"/>
      <point x="565" y="481"/>
      <point x="595" y="503" type="curve" smooth="yes"/>
      <point x="691" y="573"/>
      <point x="784" y="646"/>
      <point x="953" y="646" type="curve" smooth="yes"/>
      <point x="1313" y="646"/>
      <point x="1359" y="444"/>
    </contour>
    <contour>
      <point x="719" y="1300" type="move" name="_top"/>
    </contour>
  </outline>
</glyph>
<glyph name="uni0326" format="1">
  <advance width="711"/>
  <unicode hex="0326"/>
  <outline>
    <contour>
      <point x="141" y="209" type="curve" smooth="yes"/>
      <point x="141" y="342"/>
      <point x="243" y="409"/>
      <point x="345" y="409" type="curve" smooth="yes"/>
      <point x="489" y="409"/>
      <point x="555" y="298"/>
      <point x="555" y="169" type="curve" smooth="yes"/>
      <point x="555" y="-15"/>
      <point x="429" y="-234"/>
      <point x="208" y="-234" type="curve" smooth="yes"/>
      <point x="194" y="-234"/>
      <point x="179" y="-233"/>
      <point x="164" y="-231" type="curve"/>
      <point x="164" y="-122" type="line"/>
      <point x="244" y="-121"/>
      <point x="314" y="-77"/>
      <point x="320" y="0" type="curve"/>
      <point x="227" y="10"/>
      <point x="141" y="80"/>
    </contour>
    <contour>
      <point x="348" y="0" type="move" name="_bottom"/>
    </contour>
  </outline>
</glyph>
<glyph name="quoteright" format="1">
  <advance width="706"/>
  <unicode hex="2019"/>
  <outline>
    <contour>
      <point x="154" y="1430" type="curve" smooth="yes"/>
      <point x="154" y="1563"/>
      <point x="256" y="1630"/>
      <point x="358" y="1630" type="curve" smooth="yes"/>
      <point x="502" y="1630"/>
      <point x="568" y="1519"/>
      <point x="568" y="1390" type="curve" smooth="yes"/>
      <point x="568" y="1206"/>
      <point x="442" y="987"/>
      <point x="221" y="987" type="curve" smooth="yes"/>
      <point x="207" y="987"/>
      <point x="192" y="988"/>
      <point x="177" y="990" type="curve"/>
      <point x="177" y="1099" type="line"/>
      <point x="257" y="1100"/>
      <point x="327" y="1144"/>
      <point x="333" y="1221" type="curve"/>
      <point x="240" y="1231"/>
      <point x="154" y="1301"/>
    </contour>
  </outline>
</glyph>
<glyph name="quotedblleft" format="1">
  <advance width="1339"/>
  <unicode hex="201C"/>
  <outline>
    <contour>
      <point x="668" y="1187" type="curve" smooth="yes"/>
      <point x="668" y="1054"/>
      <point x="566" y="987"/>
      <point x="464" y="987" type="curve" smooth="yes"/>
      <point x="320" y="987"/>
      <point x="254" y="1098"/>
      <point x="254" y="1227" type="curve" smooth="yes"/>
      <point x="254" y="1411"/>
      <point x="380" y="1630"/>
      <point x="601" y="1630" type="curve" smooth="yes"/>
      <point x="615" y="1630"/>
      <point x="630" y="1629"/>
      <point x="645" y="1627" type="curve"/>
      <point x="645" y="1518" type="line"/>
      <point x="565" y="1517"/>
      <point x="495" y="1473"/>
      <point x="489" y="1396" type="curve"/>
      <point x="582" y="1386"/>
      <point x="668" y="1316"/>
    </contour>
    <contour>
      <point x="1171" y="1187" type="curve" smooth="yes"/>
      <point x="1171" y="1054"/>
      <point x="1069" y="987"/>
      <point x="967" y="987" type="curve" smooth="yes"/>
      <point x="823" y="987"/>
      <point x="757" y="1098"/>
      <point x="757" y="1227" type="curve" smooth="yes"/>
      <point x="757" y="1411"/>
      <point x="883" y="1630"/>
      <point x="1104" y="1630" type="curve" smooth="yes"/>
      <point x="1118" y="1630"/>
      <point x="1133" y="1629"/>
      <point x="1148" y="1627" type="curve"/>
      <point x="1148" y="1518" type="line"/>
      <point x="1068" y="1517"/>
      <point x="998" y="1473"/>
      <point x="992" y="1396" type="curve"/>
      <point x="1085" y="1386"/>
      <point x="1171" y="1316"/>
    </contour>
  </outline>
</glyph>
<glyph name="Euro" format="1">
  <advance width="1432"/>
  <unicode hex="20AC"/>
  <outline>
    <contour>
      <point x="0" y="705" type="line"/>
      <point x="90" y="705" type="line"/>
      <point x="90" y="843" type="line"/>
      <point x="0" y="843" type="line"/>
      <point x="0" y="987" type="line"/>
      <point x="90" y="987" type="line"/>
      <point x="90" y="1226" type="line" smooth="yes"/>
      <point x="90" y="1598"/>
      <point x="483" y="1632"/>
      <point x="783" y="1632" type="curve" smooth="yes"/>
      <point x="1098" y="1632"/>
      <point x="1472" y="1606"/>
      <point x="1472" y="1227" type="curve" smooth="yes"/>
      <point x="1472" y="1139" type="line"/>
      <point x="868" y="1139" type="line"/>
      <point x="868" y="1356" type="line"/>
      <point x="695" y="1356" type="line"/>
      <point x="695" y="988" type="line"/>
      <point x="1037" y="988" type="line"/>
      <point x="1037" y="843" type="line"/>
      <point x="695" y="843" type="line"/>
      <point x="695" y="706" type="line"/>
      <point x="1037" y="706" type="line"/>
      <point x="1037" y="561" type="line"/>
      <point x="695" y="561" type="line"/>
      <point x="695" y="233" type="line"/>
      <point x="868" y="233" type="line"/>
      <point x="868" y="451" type="line"/>
      <point x="1472" y="451" type="line"/>
      <point x="1472" y="369" type="line" smooth="yes"/>
      <point x="1472" y="-6"/>
      <point x="1090" y="-40"/>
      <point x="786" y="-40" type="curve" smooth="yes"/>
      <point x="511" y="-40"/>
      <point x="90" y="-9"/>
      <point x="90" y="370" type="curve" smooth="yes"/>
      <point x="90" y="561" type="line"/>
      <point x="0" y="561" type="line"/>
    </contour>
  </outline>
</glyph>
<glyph name="minus" format="1">
  <advance width="1286"/>
  <unicode hex="2212"/>
  <outline>
    <contour>
      <point x="1229" y="908" type="line"/>
      <point x="1229" y="670" type="line"/>
      <point x="67" y="670" type="line"/>
      <point x="67" y="908" type="line"/>
    </contour>
  </outline>
</glyph>
